<svg width="140" height="32" viewBox="0 0 140 32" fill="none" xmlns="http://www.w3.org/2000/svg">
<path d="M4.68222 16.0032C4.68264 13.4361 5.55552 10.9454 7.15767 8.93971C8.75982 6.934 10.9961 5.53237 13.4996 4.96478C16.0031 4.39718 18.6252 4.69732 20.9357 5.81596C23.2462 6.9346 25.1079 8.8053 26.2154 11.1212C27.3228 13.437 27.6103 16.0606 27.0306 18.5613C26.451 21.062 25.0386 23.2915 23.0251 24.884C21.0117 26.4764 18.5169 27.3373 15.9498 27.3253C13.3828 27.3133 10.8961 26.4292 8.8976 24.8181L5.57671 28.139C8.62513 30.7565 12.5468 32.1313 16.5624 31.9901C20.5779 31.8489 24.3934 30.202 27.2504 27.3767C30.1074 24.5514 31.7968 20.7546 31.9828 16.7409C32.1689 12.7272 30.838 8.79037 28.2546 5.71291C25.6712 2.63545 22.0245 0.642634 18.0392 0.130529C14.054 -0.381576 10.0219 0.624521 6.7444 2.94886C3.46689 5.27321 1.18389 8.74562 0.349137 12.676C-0.485618 16.6064 0.188983 20.7069 2.23887 24.1627L5.70382 20.6978C5.0305 19.2243 4.68208 17.6232 4.68222 16.0032Z" fill="#FFC000"/>
<path d="M16.014 24.9866C20.9702 24.9866 24.988 20.9688 24.988 16.0126C24.988 11.0564 20.9702 7.03857 16.014 7.03857C11.0577 7.03857 7.03992 11.0564 7.03992 16.0126C7.03992 20.9688 11.0577 24.9866 16.014 24.9866Z" fill="#101828"/>
<path d="M16.0148 15.8224C17.8494 15.8224 19.3367 14.3351 19.3367 12.5005C19.3367 10.6659 17.8494 9.17871 16.0148 9.17871C14.1802 9.17871 12.693 10.6659 12.693 12.5005C12.693 14.3351 14.1802 15.8224 16.0148 15.8224Z" fill="white"/>
<path d="M16.1099 23.4218L22.7847 16.7471C22.8069 16.7207 22.8191 16.6874 22.8191 16.6529C22.8191 16.6185 22.8069 16.5851 22.7847 16.5588C22.7609 16.5309 22.727 16.5137 22.6905 16.5107H9.34011C9.32116 16.5106 9.30237 16.5143 9.28483 16.5215C9.2673 16.5287 9.25137 16.5393 9.23796 16.5527C9.22456 16.5661 9.21396 16.582 9.20676 16.5995C9.19957 16.6171 9.19593 16.6359 9.19605 16.6548C9.19585 16.6732 9.20012 16.6914 9.20848 16.7078C9.21684 16.7242 9.22905 16.7383 9.24407 16.749L15.9188 23.4237C15.9455 23.4466 15.9796 23.4591 16.0147 23.4587C16.0499 23.4584 16.0837 23.4453 16.1099 23.4218Z" fill="white"/>
<path d="M71.3308 26.0454C72.3797 24.9565 73.2026 23.6707 73.7518 22.262C74.3011 20.8534 74.5658 19.3499 74.5308 17.8384C74.596 14.7769 73.4454 11.8143 71.3308 9.59939C70.2239 8.4758 68.8936 7.59692 67.4258 7.01954C65.9581 6.44215 64.3855 6.1791 62.8098 6.24739C61.234 6.1791 59.6615 6.44215 58.1937 7.01954C56.726 7.59692 55.3957 8.4758 54.2888 9.59939C52.1742 11.8143 51.0235 14.7769 51.0888 17.8384C51.0537 19.3499 51.3185 20.8534 51.8677 22.262C52.417 23.6707 53.2398 24.9565 54.2888 26.0454C55.3896 27.1793 56.7183 28.0669 58.1872 28.6499C59.6562 29.2328 61.232 29.4978 62.8108 29.4274C64.3892 29.4975 65.9647 29.2324 67.4332 28.6495C68.9018 28.0665 70.2301 27.179 71.3308 26.0454ZM62.8108 24.8864C61.9191 24.9321 61.0288 24.7723 60.2087 24.4193C59.3885 24.0662 58.6605 23.5295 58.0808 22.8504C56.9024 21.4543 56.2977 19.663 56.3888 17.8384C56.2979 16.0043 56.9021 14.2035 58.0808 12.7954C58.663 12.1216 59.3924 11.5908 60.2126 11.244C61.0328 10.8972 61.9218 10.7437 62.8108 10.7954C63.699 10.75 64.586 10.9064 65.4052 11.2527C66.2244 11.5991 66.9545 12.1265 67.5408 12.7954C68.6931 14.2181 69.2938 16.0086 69.2328 17.8384C69.294 19.6588 68.6928 21.4396 67.5408 22.8504C66.9569 23.5245 66.2282 24.0578 65.409 24.4103C64.5899 24.7629 63.7017 24.9257 62.8108 24.8864ZM83.2668 29.2714C87.3668 29.2714 89.8768 27.2044 89.8768 24.0714C89.8768 21.9714 88.4358 20.5004 86.0548 19.8714L82.4838 18.9004C81.6378 18.6814 81.1998 18.2114 81.1998 17.5534C81.1998 16.8014 81.8888 16.3004 82.9228 16.3004C84.2068 16.3004 84.9898 16.9274 84.9898 17.9604H89.7198C89.7198 15.0474 87.3388 13.2604 82.9848 13.2604C79.0688 13.2604 76.5318 15.2024 76.5318 18.0534C76.5318 20.2144 77.8478 21.7814 80.3218 22.4074L84.0218 23.3474C84.3344 23.3805 84.6225 23.5319 84.8271 23.7707C85.0316 24.0094 85.137 24.3174 85.1218 24.6314C85.1218 25.5084 84.4018 26.0414 83.3678 26.0414C81.8958 26.0414 80.8928 25.2894 80.8928 24.2554H76.1238C76.1224 24.9696 76.2993 25.6729 76.6384 26.3015C76.9776 26.9302 77.4681 27.4642 78.0658 27.8554C79.6049 28.868 81.4267 29.364 83.2668 29.2714ZM100.559 25.0714C99.1808 25.0714 98.4588 24.5384 98.4588 22.5024V17.4934H101.874V13.7034H98.4598V9.22739H93.6668V13.7074H91.2858V17.4974H93.6668V23.5074C93.5903 24.9848 94.0215 26.4439 94.8888 27.6424C95.4449 28.1478 96.0988 28.5337 96.81 28.7762C97.5213 29.0188 98.2747 29.1128 99.0238 29.0524C100.096 29.0596 101.166 28.9756 102.224 28.8014V24.9804C101.671 25.0497 101.115 25.0811 100.558 25.0744L100.559 25.0714ZM110.896 29.2094C111.846 29.2403 112.789 29.0224 113.629 28.5775C114.47 28.1325 115.18 27.4759 115.689 26.6724V28.8024H120.447V13.7024H115.689V15.8634C115.213 15.0411 114.52 14.366 113.686 13.9127C112.851 13.4594 111.907 13.2454 110.959 13.2944C109.979 13.2575 109.003 13.441 108.103 13.8312C107.203 14.2215 106.402 14.8086 105.759 15.5494C104.415 17.1376 103.711 19.17 103.785 21.2494C103.689 23.3313 104.37 25.3746 105.696 26.9824C106.341 27.7188 107.143 28.3012 108.043 28.6866C108.943 29.072 109.918 29.2507 110.896 29.2094ZM112.274 25.2274C110.113 25.2274 108.674 23.5984 108.674 21.2494C108.674 18.9004 110.115 17.3024 112.274 17.3024C114.561 17.3024 115.874 18.9944 115.874 21.2494C115.877 23.5394 114.561 25.2274 112.274 25.2274ZM135.205 14.5804H135.236V15.8644C134.76 15.0421 134.067 14.367 133.233 13.9137C132.398 13.4604 131.454 13.2464 130.506 13.2954C129.526 13.2585 128.55 13.442 127.65 13.8322C126.75 14.2225 125.949 14.8096 125.306 15.5504C123.962 17.1386 123.258 19.171 123.332 21.2504C123.236 23.3335 123.919 25.3777 125.247 26.9854C125.892 27.7213 126.694 28.3031 127.594 28.688C128.494 29.0728 129.469 29.251 130.447 29.2094C131.397 29.2403 132.34 29.0224 133.18 28.5775C134.021 28.1325 134.731 27.4759 135.24 26.6724V28.8024H139.997V6.87439H135.205V14.5804ZM131.821 25.2274C129.66 25.2274 128.221 23.5984 128.221 21.2494C128.221 18.9004 129.662 17.3024 131.821 17.3024C134.108 17.3024 135.421 18.9944 135.421 21.2494C135.424 23.5394 134.108 25.2274 131.821 25.2274Z" fill="#101828"/>
</svg>
